{"title":"Paulina Rubio - Boys Will Be Boys (Patrolla Remix) (h264)","uid":7509760,"size":79466066,"categoryP":"video","categoryS":"music_videos","magnet":"?xt=urn:btih:e4ebb448676cb25bcd0413bfe749c1c8f9a5ddc4&amp;dn=Paulina+Rubio+-+Boys+Will+Be+Boys+%28Patrolla+Remix%29+%28h264%29&amp;tr=udp%3A%2F%2Ftracker.openbittorrent.com%3A80&amp;tr=udp%3A%2F%2Fopen.demonii.com%3A1337&amp;tr=udp%3A%2F%2Ftracker.coppersurfer.tk%3A6969&amp;tr=udp%3A%2F%2Fexodus.desync.com%3A6969","seeders":2,"leechers":0,"uploader":"MusicVideos-HQ","files":1,"time":1344280308,"description":"General\n\nFormat                         : MPEG-4\nFormat profile                 : Base Media\nCodec ID                       : isom\nFile size                      : 75.8 MiB\nDuration                       : 3mn 37s\nOverall bit rate mode          : Variable\nOverall bit rate               : 2 918 Kbps\nEncoded date                   : UTC 2012-08-05 05:05:58\nTagged date                    : UTC 2012-08-05 05:05:58\n\nVideo\nID                             : 1\nFormat                         : AVC\nFormat/Info                    : Advanced Video Codec\nFormat profile                 : &lt;a class=&quot;__cf_email__&quot; href=&quot;/cdn-cgi/l/email-protection&quot; data-cfemail=&quot;632b0a040b232f504d53&quot;&gt;[email&amp;#160;protected]&lt;/a&gt;&lt;script cf-hash='f9e31' type=&quot;text/javascript&quot;&gt;\n/* &lt;![CDATA[ */!function(){try{var t=&quot;currentScript&quot;in document?document.currentScript:function(){for(var t=document.getElementsByTagName(&quot;script&quot;),e=t.length;e--;)if(t[e].getAttribute(&quot;cf-hash&quot;))return t[e]}();if(t&amp;&amp;t.previousSibling){var e,r,n,i,c=t.previousSibling,a=c.getAttribute(&quot;data-cfemail&quot;);if(a){for(e=&quot;&quot;,r=parseInt(a.substr(0,2),16),n=2;a.length-n;n+=2)i=parseInt(a.substr(n,2),16)^r,e+=String.fromCharCode(i);e=document.createTextNode(e),c.parentNode.replaceChild(e,c)}}}catch(u){}}();/* ]]&gt; */&lt;/script&gt;\nFormat settings, CABAC         : Yes\nFormat settings, ReFrames      : 2 frames\nCodec ID                       : avc1\nCodec ID/Info                  : Advanced Video Coding\nDuration                       : 3mn 37s\nBit rate                       : 2 823 Kbps\nMaximum bit rate               : 4 577 Kbps\nWidth                          : 720 pixels\nHeight                         : 480 pixels\nDisplay aspect ratio           : 16:9\nOriginal display aspect ratio  : 16:9\nFrame rate mode                : Constant\nFrame rate                     : 25.000 fps\nStandard                       : NTSC\nColor space                    : YUV\nChroma subsampling             : 4:2:0\nBit depth                      : 8 bits\nScan type                      : Progressive\nBits/(Pixel*Frame)             : 0.327\nStream size                    : 70.8 MiB (93%)\n\n\nAudio\nID                             : 2\nFormat                         : AAC\nFormat/Info                    : Advanced Audio Codec\nFormat profile                 : LC\nCodec ID                       : 40\nDuration                       : 3mn 37s\nBit rate mode                  : Variable\nBit rate                       : 184 Kbps\nMaximum bit rate               : 215 Kbps\nChannel(s)                     : 2 channels\nChannel positions              : Front: L R\nSampling rate                  : 44.1 KHz\nCompression mode               : Lossy\nDelay relative to video        : -7ms\nStream size                    : 4.78 MiB (6%)","torrent":{"xt":"urn:btih:e4ebb448676cb25bcd0413bfe749c1c8f9a5ddc4","amp;dn":"Paulina+Rubio+-+Boys+Will+Be+Boys+%28Patrolla+Remix%29+%28h264%29","amp;tr":["udp%3A%2F%2Ftracker.openbittorrent.com%3A80","udp%3A%2F%2Fopen.demonii.com%3A1337","udp%3A%2F%2Ftracker.coppersurfer.tk%3A6969","udp%3A%2F%2Fexodus.desync.com%3A6969"],"infoHash":"e4ebb448676cb25bcd0413bfe749c1c8f9a5ddc4","infoHashBuffer":{"type":"Buffer","data":[228,235,180,72,103,108,178,91,205,4,19,191,231,73,193,200,249,165,221,196]},"announce":[],"urlList":[]}}